PathFileType	4	(X/Y/Z)	D:\Long Term Storage\D'Arcy Smith\Coord17.trc
DataRate	CameraRate	NumFrames	NumMarkers	Units	OrigDataRate	OrigDataStartFrame	OrigNumFrames
120.00	120.00	      137	4	mm	120.00	1214	      4853
Frame#	Time	M1			M2			M3			M4			
		X1	Y1	Z1	X2	Y2	Z2	X3	Y3	Z3	X4	Y4	Z4	

1214	10.108	586.00128	370.57193	119.17322	1033.08484	484.22308	-38.59089							
1215	10.117	587.14313	362.92584	135.23935	1033.82751	485.86502	-39.84597							
1216	10.125	587.68317	355.53079	151.95116	1034.58508	486.85681	-40.63639							
1217	10.133	588.28760	349.16870	168.66209	1035.47021	487.63901	-40.93804							
1218	10.142	588.54437	343.95715	186.85101	1035.81482	486.90695	-40.35772							
1219	10.150	588.97205	339.84216	204.30511	1036.42297	486.00418	-39.45238							
1220	10.158	588.52991	336.44528	221.83276	1036.86267	484.21198	-36.90614							
1221	10.167	588.27826	333.73691	239.12544	1037.21838	481.97516	-35.07270							
1222	10.175	587.57318	332.50024	256.96899	1037.57263	479.30768	-32.63538							
1223	10.183	587.76758	331.26733	272.18658	1037.83936	476.08658	-29.97036							
1224	10.192	586.09216	331.16760	285.87347	1038.04541	472.30933	-26.66296							
1225	10.200	586.09430	331.12079	300.69766	1038.14551	468.02869	-23.09248							
1226	10.208	584.79968	331.31100	312.27670	1038.19666	463.48642	-19.40609							
1227	10.217	583.42102	332.36389	324.13959	1038.04077	458.14563	-13.97807							
1228	10.225	582.20837	333.13739	335.13217	1037.95154	452.47916	-8.98210							
1229	10.233	581.63940	334.47443	348.83698	1037.56458	446.55984	-3.51086							
1230	10.242	580.48621	335.16168	355.74625	1037.32397	440.50980	2.24497							
1231	10.250	579.28479	336.36395	365.62485	1036.83899	435.52570	5.77843							
1232	10.258	578.17950	337.65131	375.12109	1036.20190	429.03442	12.64219							
1233	10.267	577.10834	339.21899	384.20984	1035.60120	422.22971	19.85314							
1234	10.275	575.94312	340.64154	392.74841	1034.71313	415.33841	27.57365							
1235	10.283	574.95367	342.43668	401.61249	1033.89478	408.49332	35.80996							
1236	10.292	574.07922	344.34015	410.27567	1032.77698	401.54352	44.66367							
1237	10.300	572.95221	346.49460	418.68256	1031.64087	394.64993	53.70649							
1238	10.308	572.30707	349.13687	427.22247	1030.47156	387.75903	63.34449							
1239	10.317	571.26495	351.51712	435.36813	1029.11548	381.15353	73.43711							
1240	10.325	570.51398	354.09674	443.05374	1027.65454	374.84805	84.05540							
1241	10.333	569.66589	356.71817	450.63940	1025.33850	367.64560	96.37226							
1242	10.342	569.12714	359.57422	457.83231	1023.85229	362.12030	109.20707							
1243	10.350	568.34277	362.37939	464.27661	1022.26025	357.46124	121.22378							
1244	10.358	567.93488	365.18747	472.10202	1019.90802	352.28027	133.38287							
1245	10.367	567.81219	368.07983	478.24179	1017.83728	347.64334	145.60616							
1246	10.375	567.84735	370.58054	484.26648	1015.54822	343.50937	158.13187							
1247	10.383	567.48077	373.07703	488.49417	1013.12415	339.75714	170.77211							
1248	10.392	567.40900	375.14212	491.89020	1010.56573	336.41873	183.52934							
1249	10.400	567.34320	377.19629	495.49091	1008.05603	333.31104	195.84816							
1250	10.408	567.47229	378.83179	497.74094	1005.88159	330.87122	208.94734							
1251	10.417	567.62775	379.90805	499.58411	1003.44067	329.44861	221.68869							
1252	10.425	568.04773	380.87344	500.86087	1000.73090	328.16129	233.40057							
1253	10.433	568.66028	381.36249	501.43518	997.91284	327.17569	247.13564							
1254	10.442	569.32544	381.53116	501.29550	994.94177	326.66452	259.71066							
1255	10.450	570.00708	381.35266	500.36978	992.18604	326.81012	271.53067							
1256	10.458	570.80927	380.96841	498.57437	989.15253	327.23499	283.59677							
1257	10.467	571.49713	380.27423	496.23373	986.26831	328.08240	295.25073							
1258	10.475	572.12299	379.07541	492.44629	983.42181	329.31781	306.06491							
1259	10.483	572.91785	377.64249	488.24081	980.56946	330.90894	316.86908							
1260	10.492	573.55884	375.63855	482.99380	977.84204	332.67203	326.99072							
1261	10.500	574.27155	373.00046	477.13821	975.02490	334.77524	336.46585							
1262	10.508	574.33374	369.98169	466.46448	972.42908	337.02264	345.48380							
1263	10.517	575.07373	366.78400	459.07410	969.80664	339.42490	354.13272							
1264	10.525	575.90497	363.21094	449.84592	967.29083	341.86801	361.90381							
1265	10.533	576.54926	359.50037	439.77258	964.81445	344.31290	369.17599							
1266	10.542	577.33655	355.39825	428.59421	962.59894	346.84235	375.76733							
1267	10.550	577.89990	351.43008	416.56528	960.29205	349.06207	381.62729							
1268	10.558	578.53644	347.64890	403.69193	958.22021	351.38684	386.77505							
1269	10.567	578.90887	344.12833	390.58255	956.43323	353.21970	391.28613							
1270	10.575	579.25873	340.69177	376.04547	954.66321	355.05588	395.02524							
1271	10.583	579.41797	337.78989	360.49026	952.87506	356.55713	398.04807							
1272	10.592	579.31415	335.72180	344.08221	951.47443	357.85074	400.46655							
1273	10.600	579.00806	334.11349	326.75760	950.17395	358.97415	401.94562							
1274	10.608	578.66260	332.95288	308.43042	949.03723	359.78796	402.68369							
1275	10.617	577.86139	332.83563	289.24457	947.97461	360.33295	402.79581							
1276	10.625	577.19495	333.40146	270.04260	947.20044	360.58731	401.92966							
1277	10.633	576.45233	335.20111	248.42113	946.51440	360.48779	400.10141							
1278	10.642	575.30164	337.45932	227.39116	945.96521	360.19260	397.94839							
1279	10.650	573.97321	340.91571	206.12851	945.69153	359.57709	394.62613							
1280	10.658	572.62390	345.57288	184.93654	945.46173	358.49579	390.83829							
1281	10.667	571.04846	351.15805	163.62056	945.54926	357.36087	385.93484							
1282	10.675	569.02557	357.52463	142.50667	945.78094	355.94565	380.45001							
1283	10.683	567.78601	366.08725	122.72203	946.13544	354.64413	374.01028							
1284	10.692	565.55853	375.31067	103.08396	946.75208	353.23419	366.71008							
1285	10.700	563.28223	385.84909	84.26593	947.44031	351.25153	358.56760							
1286	10.708	561.21667	396.72379	66.50870	948.46332	349.71143	349.66321							
1287	10.717	558.94128	408.49875	50.08296	949.54242	348.17657	340.00537							
1288	10.725	556.60651	420.29819	34.84268	949.99597	346.29703	330.14413							
1289	10.733	554.89990	432.62289	21.70450	951.58740	345.08124	319.06421							
1290	10.742	553.29291	444.76538	10.08545	953.26086	343.93805	307.66269							
1291	10.750	552.03235	456.58792	0.02020	954.49384	343.32697	295.60828							
1292	10.758	551.05823	467.98465	-8.22747	957.08429	342.86234	283.11893							
1293	10.767	550.35834	478.49808	-14.92698	959.05896	342.83664	269.83664							
1294	10.775	550.14972	488.19199	-20.27464	961.24261	343.84799	256.04562							
1295	10.783	550.06311	497.05716	-24.44463	963.23541	344.38043	242.55136							
1296	10.792	551.00299	504.20953	-27.68738	965.56702	345.57550	228.96794							
1297	10.800	551.99622	510.64426	-29.90248	968.09143	347.40356	215.03966							
1298	10.808	553.26172	516.03217	-31.27160	970.67987	349.58185	201.32259							
1299	10.817	554.63287	520.27863	-31.99134	973.32379	352.28748	186.93765							
1300	10.825	556.39709	523.67963	-32.20840	975.89734	355.55957	173.27068							
1301	10.833	558.00800	526.29810	-31.99070	978.59753	358.92990	159.53091							
1302	10.842	559.52454	528.33655	-31.30779	981.16718	362.89615	146.24321							
1303	10.850	561.33441	529.16968	-30.58844	983.95154	367.18176	132.93649							
1304	10.858	563.30011	529.34711	-29.72645	986.57874	371.91180	119.79668							
1305	10.867	565.30402	528.66248	-28.67624	989.24536	376.74509	106.66325							
1306	10.875	567.53882	526.95953	-27.47403	991.91113	382.71405	91.92007							
1307	10.883	569.16620	525.29712	-25.96586	994.53375	387.77438	80.98918							
1308	10.892	571.27686	522.10675	-24.42357	996.95703	393.65945	69.77957							
1309	10.900	573.10339	518.66388	-22.64873	999.35272	399.66162	59.08856							
1310	10.908	574.70947	514.50403	-20.49464	1001.72351	405.75406	48.78218							
1311	10.917	576.31830	509.62552	-18.02357	1003.87720	412.11938	39.12349							
1312	10.925	577.68970	504.23413	-15.34443	1005.90472	418.28696	30.08208							
1313	10.933	579.00519	498.19034	-12.16009	1008.05420	424.64883	21.08493							
1314	10.942	580.17590	491.56882	-8.55595	1009.81177	430.64438	13.59624							
1315	10.950	581.25708	484.44089	-4.59861	1011.53540	436.40228	6.45351							
1316	10.958	582.06116	476.95792	-0.94297	1013.29938	442.01727	-0.16921							
1317	10.967	583.00012	468.52414	4.64359	1014.83356	447.29092	-6.03049							
1318	10.975	584.00476	460.03494	10.29789	1016.11823	452.11066	-11.22551							
1319	10.983	584.86310	450.92676	16.72046	1017.37506	456.42319	-15.86218							
1320	10.992	585.47028	442.15152	23.65741	1018.61060	461.66351	-21.28545							
1321	11.000	585.97803	432.90399	31.09681	1019.69940	464.87225	-24.24481							
1322	11.008	586.64288	423.77414	39.48106	1020.71869	467.67007	-26.95036							
1323	11.017	586.97260	414.50931	48.54005	1021.56915	469.85110	-28.96483							
1324	11.025	586.88037	405.45654	58.26532	1022.42316	471.37271	-30.46776							
1325	11.033	587.04358	395.81085	68.20911	1023.16003	472.37274	-31.44260							
1326	11.042	586.99072	386.74915	78.97112	1023.81989	472.55609	-31.11416							
1327	11.050	586.84143	377.50943	90.22005	1024.49731	472.14822	-31.39280							
1328	11.058	586.06055	368.48334	102.12650	1024.98059	470.98904	-30.51587							
1329	11.067	585.77533	360.07425	115.03427	1025.45959	469.27170	-29.04904							
1330	11.075	585.62048	352.31052	129.29849	1025.77087	466.99020	-26.79432							
1331	11.083	585.20062	344.91852	143.77533	1026.24329	463.34909	-23.64011							
1332	11.092	584.56403	337.98483	159.10806	1026.36072	460.05579	-20.67921							
1333	11.100	584.48157	331.82605	176.78111	1026.39612	455.13898	-16.20149							
1334	11.108	583.43463	326.22202	191.85239	1026.33618	450.53961	-11.55234							
1335	11.117	583.31946	322.00302	209.00688	1026.21301	445.47989	-6.50851							
1336	11.125	582.76361	318.21890	226.22038	1025.96191	440.02475	-0.87807							
1337	11.133	582.18652	314.76398	243.86682	1025.76184	434.08636	5.52470							
1338	11.142	581.79272	312.57443	261.48816	1025.40698	427.95770	12.45415							
1339	11.150	581.38489	311.15430	279.04837	1024.83447	421.36502	19.95331							
1340	11.158	580.99316	310.33078	296.35211	1024.41028	414.72501	28.12546							
1341	11.167	580.82153	310.57205	313.71722	1023.66418	407.80005	36.90241							
1342	11.175	580.61664	311.38919	330.82361	1022.97101	400.64362	46.39196							
1343	11.183	580.52625	313.03738	347.50385	1022.18713	393.41092	56.22895							
1344	11.192	580.44592	316.00830	363.26031	1020.86639	386.20007	67.06050							
1345	11.200	580.48413	318.65472	379.39594	1019.88397	379.18677	78.22498							
1346	11.208	580.50635	322.52097	394.25269	1018.76050	372.23404	89.96102							
1347	11.217	580.67847	327.08521	408.64780	1017.38635	365.71298	102.14485							
1348	11.225	580.85638	331.81192	421.98755	1016.44611	359.92386	116.83703							
1349	11.233	581.13617	337.36636	435.01273	1014.92188	353.84576	130.06255							
1350	11.242	581.49146	343.01727	446.96649	1013.31000	348.38861	143.49600							
